<svg width="154" height="49" viewBox="0 0 154 49" fill="none" xmlns="http://www.w3.org/2000/svg">
<path fill-rule="evenodd" clip-rule="evenodd" d="M22.0846 9H15.7965C15.792 9.02879 15.7875 9.05512 15.7833 9.07946V9.07946C15.7662 9.17833 15.7547 9.24435 15.7805 9.30854C15.7634 15.2642 15.7634 21.2217 15.7805 27.1811C15.7985 27.4233 15.9119 27.652 16.1008 27.8267C16.5355 28.2036 16.9853 28.5669 17.4349 28.9301C17.8135 29.236 18.1919 29.5416 18.561 29.8551C18.6038 29.9084 18.6599 29.952 18.725 29.9824C18.7901 30.0128 18.8623 30.0293 18.9357 30.0304C19.0092 30.0315 19.0819 30.0173 19.1481 29.9888C19.2143 29.9604 19.2721 29.9185 19.3169 29.8665C20.0825 29.2323 20.8546 28.6009 21.6458 27.9924C21.8079 27.8735 21.9359 27.7218 22.0189 27.5498C22.1019 27.3779 22.1376 27.1907 22.1231 27.004V9.70565C22.1231 9.59409 22.1139 9.48322 22.1045 9.36971C22.0947 9.25066 22.0846 9.1287 22.0846 9ZM38.7739 37.4421V33.4814H1.65854C1.25542 33.459 0.851369 33.459 0.448253 33.4814C0.288163 33.4975 0.0224127 33.6864 0.0224127 33.8016C0 35.0055 0 36.2094 0 37.4421H38.7739ZM38.7739 41.2001V38.9878H1.65854C1.25542 38.9752 0.851369 38.9752 0.448253 38.9878C0.288163 38.9967 0.0224127 39.1022 0.0224127 39.1666C0 39.8391 0 40.5115 0 41.2001H38.7739ZM38.7739 42.7272V44H0C0 43.6039 0 43.217 0.0224127 42.8301C0.0224127 42.793 0.288163 42.7323 0.448253 42.7272C0.851369 42.72 1.25542 42.72 1.65854 42.7272H38.7739ZM37.6785 19.5002C37.6785 21.3138 37.6785 22.9694 37.6625 24.6249C37.6389 24.7368 37.5939 24.8427 37.53 24.9365C37.4662 25.0303 37.3848 25.1101 37.2906 25.1713C34.2428 27.3064 31.1875 29.4293 28.1247 31.5402C27.9114 31.69 27.6615 31.7755 27.4033 31.7871C25.8474 31.8002 24.29 31.7959 22.7331 31.7915H22.733H22.7328H22.7327H22.7323H22.732H22.7316C21.9536 31.7893 21.1758 31.7871 20.3983 31.7871C20.2528 31.7698 20.1083 31.7445 19.9655 31.7114L37.6785 19.5002ZM17.6522 31.7469L0 19.5304C0 21.3556 0 22.9897 0.0352083 24.6305C0.0653618 24.766 0.121344 24.8941 0.199912 25.0072C0.27848 25.1203 0.378071 25.2162 0.492917 25.2894C3.44828 27.3782 6.41965 29.4473 9.40703 31.4965C9.72008 31.7028 10.0821 31.8168 10.4537 31.826H17.012C17.2266 31.8107 17.4402 31.7843 17.6522 31.7469ZM23.0999 26.8957L37.526 9V14.775C37.4866 15.0068 37.3716 15.2115 37.2054 15.3457C32.5934 19.1757 27.9845 22.9981 23.3788 26.813C23.2881 26.8499 23.1948 26.8775 23.0999 26.8957ZM4.17479 13.798C7.70068 18.1782 11.189 22.5117 14.7307 26.9261C14.6276 26.912 14.5265 26.8829 14.4295 26.8396C9.82659 23.0207 5.22793 19.193 0.633535 15.3565C0.467458 15.2221 0.352529 15.017 0.313145 14.7848C0.300485 13.5612 0.3045 12.3392 0.308717 11.0554C0.310904 10.3898 0.313145 9.70762 0.313145 9C1.60823 10.6096 2.89399 12.2069 4.17479 13.798Z" fill="#F04F20"/>
<path d="M53.4624 24H50.3569V15.1328H53.4624V24ZM61.0601 24H57.9546V15.1328H61.0601V24ZM68.6772 24H65.5718V13.3164C65.5718 13.1992 65.549 13.0885 65.5034 12.9844C65.4578 12.8802 65.396 12.7891 65.3179 12.7109C65.2397 12.6328 65.1486 12.571 65.0444 12.5254C64.9403 12.4798 64.8296 12.457 64.7124 12.457H50.3569V9.35156H64.7124C65.2528 9.35156 65.7638 9.45573 66.2456 9.66406C66.7274 9.8724 67.1506 10.1556 67.5151 10.5137C67.8732 10.8783 68.1564 11.3014 68.3647 11.7832C68.5731 12.265 68.6772 12.776 68.6772 13.3164V24ZM89.3608 24H71.6069V15.1328H89.3608V18.2383H74.7124V20.9141H89.3608V24ZM89.3608 12.457H71.6069V9.35156H89.3608V12.457ZM102.994 24H99.8882V15.1328H102.994V24ZM110.591 12.457H92.2905V9.35156H110.591V12.457ZM128.736 15.1328V13.2383C128.736 13.0234 128.661 12.8379 128.511 12.6816C128.355 12.5319 128.169 12.457 127.955 12.457H117.388C117.18 12.457 117.001 12.5319 116.851 12.6816C116.701 12.8379 116.626 13.0234 116.626 13.2383V15.1328H128.736ZM131.841 24H128.736V18.2383H116.626V24H113.521V13.2383C113.521 12.7044 113.622 12.1999 113.824 11.7246C114.026 11.2559 114.302 10.8457 114.654 10.4941C115.005 10.1426 115.416 9.86263 115.884 9.6543C116.353 9.45247 116.854 9.35156 117.388 9.35156H127.955C128.488 9.35156 128.993 9.45247 129.468 9.6543C129.937 9.86263 130.347 10.1426 130.699 10.4941C131.05 10.8457 131.33 11.2559 131.539 11.7246C131.74 12.1999 131.841 12.7044 131.841 13.2383V24ZM152.388 24H138.619C138.091 24 137.597 23.8991 137.134 23.6973C136.666 23.4954 136.255 23.222 135.904 22.877C135.552 22.5319 135.276 22.125 135.074 21.6562C134.872 21.194 134.771 20.6992 134.771 20.1719V9.35156H137.876V20.1719C137.876 20.3672 137.948 20.5397 138.091 20.6895C138.235 20.8392 138.41 20.9141 138.619 20.9141H152.388V24Z" fill="white"/>
<path d="M68.1108 44H50.3569V35.1328H68.1108V38.2383H53.4624V40.9141H68.1108V44ZM68.1108 32.457H50.3569V29.3516H68.1108V32.457ZM86.2554 35.1328V33.2383C86.2554 33.0234 86.1805 32.8379 86.0308 32.6816C85.8745 32.5319 85.689 32.457 85.4741 32.457H74.9077C74.6994 32.457 74.5203 32.5319 74.3706 32.6816C74.2209 32.8379 74.146 33.0234 74.146 33.2383V35.1328H86.2554ZM89.3608 44H86.2554V38.2383H74.146V44H71.0405V33.2383C71.0405 32.7044 71.1414 32.1999 71.3433 31.7246C71.5451 31.2559 71.8218 30.8457 72.1733 30.4941C72.5249 30.1426 72.9351 29.8626 73.4038 29.6543C73.8726 29.4525 74.3739 29.3516 74.9077 29.3516H85.4741C86.008 29.3516 86.5125 29.4525 86.9878 29.6543C87.4565 29.8626 87.8667 30.1426 88.2183 30.4941C88.5698 30.8457 88.8498 31.2559 89.0581 31.7246C89.2599 32.1999 89.3608 32.7044 89.3608 33.2383V44ZM109.849 40.1719C109.849 40.6992 109.748 41.194 109.546 41.6562C109.345 42.125 109.068 42.5319 108.716 42.877C108.365 43.222 107.958 43.4954 107.496 43.6973C107.027 43.8991 106.529 44 106.001 44H92.2905V40.9141H106.001C106.21 40.9141 106.386 40.8424 106.529 40.6992C106.672 40.556 106.744 40.3802 106.744 40.1719V38.9805C106.744 38.7721 106.672 38.5964 106.529 38.4531C106.386 38.3099 106.21 38.2383 106.001 38.2383H96.1382C95.6108 38.2383 95.116 38.1374 94.6538 37.9355C94.1851 37.7337 93.7749 37.457 93.4233 37.1055C93.0718 36.7539 92.7951 36.3438 92.5933 35.875C92.3914 35.4128 92.2905 34.918 92.2905 34.3906V33.1992C92.2905 32.6719 92.3914 32.1738 92.5933 31.7051C92.7951 31.2428 93.0718 30.8359 93.4233 30.4844C93.7749 30.1328 94.1851 29.8561 94.6538 29.6543C95.116 29.4525 95.6108 29.3516 96.1382 29.3516H109.849V32.457H96.1382C95.9299 32.457 95.7541 32.5286 95.6108 32.6719C95.4676 32.8151 95.396 32.9909 95.396 33.1992V34.3906C95.396 34.599 95.4676 34.7747 95.6108 34.918C95.7541 35.0612 95.9299 35.1328 96.1382 35.1328H106.001C106.529 35.1328 107.027 35.2337 107.496 35.4355C107.958 35.6374 108.365 35.9141 108.716 36.2656C109.068 36.6172 109.345 37.0241 109.546 37.4863C109.748 37.9551 109.849 38.4531 109.849 38.9805V40.1719ZM123.482 44H120.376V35.1328H123.482V44ZM131.08 32.457H112.779V29.3516H131.08V32.457Z" fill="white"/>
</svg>
